<svg id="Capa_1" enable-background="new 0 0 512 512" height="512" viewBox="0 0 512 512" width="512" xmlns="http://www.w3.org/2000/svg"><g><path d="m197.898 271h-107.155c4.487 48.396 30.05 92.71 69.61 120.665l53.629-92.887c-7.658-7.523-13.319-17.072-16.084-27.778z"/><circle cx="256" cy="256" r="30.001"/><path d="m298.018 298.778 53.601 92.838c39.668-28.084 65.265-72.379 69.693-120.617h-107.21c-2.765 10.707-8.426 20.256-16.084 27.779z"/><path d="m272.052 198.197 53.587-92.814c-44.157-20.313-95.315-20.331-139.305-.048l53.614 92.862c5.113-1.422 10.492-2.198 16.052-2.198s10.939.776 16.052 2.198z"/><path d="m437.02 74.98c-48.353-48.351-112.64-74.98-181.02-74.98s-132.667 26.629-181.02 74.98c-48.351 48.353-74.98 112.64-74.98 181.02s26.629 132.667 74.98 181.02c48.353 48.351 112.64 74.98 181.02 74.98s132.667-26.629 181.02-74.98c48.351-48.353 74.98-112.64 74.98-181.02s-26.629-132.667-74.98-181.02zm-83.016 350.717-12.999 7.535-68.953-119.429c-5.113 1.422-10.492 2.198-16.052 2.198s-10.939-.776-16.052-2.198l-68.958 119.438-12.99-7.5c-30.27-17.476-55.328-42.75-72.469-73.089-16.622-29.424-25.438-62.837-25.495-96.627l-.025-15.025h137.887c2.766-10.706 8.426-20.255 16.084-27.778l-68.972-119.463 12.99-7.5c29.743-17.172 63.493-26.224 97.716-26.224.605 0 1.209.002 1.815.008 33.793.316 67.138 9.388 96.43 26.233l13.024 7.491-68.967 119.453c7.658 7.523 13.319 17.073 16.084 27.778h137.898v15c0 34.952-9.358 69.291-27.063 99.304-17.17 29.11-41.699 53.451-70.933 70.395z"/></g></svg>