<svg id="Layer" enable-background="new 0 0 64 64" height="512" viewBox="0 0 64 64" width="512" xmlns="http://www.w3.org/2000/svg"><path d="m32 8c-13.233 0-24 10.766-24 24 0 13.233 10.767 24 24 24s24-10.767 24-24c0-13.234-10.767-24-24-24zm19.899 22h-16.442c-.014-.026-.022-.054-.038-.08-.018-.029-.042-.05-.061-.078-.305-.472-.702-.877-1.172-1.185-.017-.011-.029-.026-.046-.037-.045-.029-.094-.046-.141-.07v-16.449c9.435.942 16.959 8.465 17.9 17.899zm-21.899-1.444c-1.19.694-2 1.97-2 3.444 0 2.206 1.794 4 4 4 1.474 0 2.75-.81 3.444-2h8.376c-.957 5.666-5.886 10-11.82 10-6.617 0-12-5.383-12-12 0-5.934 4.334-10.863 10-11.819zm2 23.444c-11.028 0-20-8.972-20-20 0-10.353 7.907-18.892 18-19.899v4.038c-7.88.989-14 7.717-14 15.861 0 8.822 7.178 16 16 16 8.144 0 14.872-6.12 15.861-14h4.038c-1.007 10.093-9.546 18-19.899 18z"/><path d="m42 25c1.654 0 3-1.346 3-3s-1.346-3-3-3-3 1.346-3 3 1.346 3 3 3z"/></svg>